<svg version="1.1" viewBox="0 0 96 96" xmlns="http://www.w3.org/2000/svg" xmlns:xlink="http://www.w3.org/1999/xlink" id="Icons_ChatBubble_LTR_M" overflow="hidden"><style>
.MsftOfcThm_Background1_Fill_v2 {
 fill:#FFFFFF; 
}
</style>
<g id="Icons"><path d=" M 78 19 C 79.1046 19 80 19.8954 80 21 L 80 61 C 80 62.1046 79.1046 63 78 63 L 66 63 L 66 74.172 L 55.914 64.086 L 55.328 63.5 L 18 63.5 C 16.8954 63.5 16 62.6046 16 61.5 L 16 21 C 16 19.8954 16.8954 19 18 19 L 78 19 M 78 17 L 18 17 C 15.7909 17 14 18.7909 14 21 L 14 61.5 C 14 63.7091 15.7909 65.5 18 65.5 L 54.5 65.5 L 68 79 L 68 65 L 78 65 C 80.2091 65 82 63.2091 82 61 L 82 21 C 82 18.7909 80.2091 17 78 17 Z" fill="#FFFFFF" fill-opacity="1"/><circle cx="64" cy="41" r="3" fill="#FFFFFF" fill-opacity="1"/><circle cx="48" cy="41" r="3" fill="#FFFFFF" fill-opacity="1"/><circle cx="32" cy="41" r="3" fill="#FFFFFF" fill-opacity="1"/></g></svg>