<svg version="1.1" viewBox="0 0 96 96" xmlns="http://www.w3.org/2000/svg" xmlns:xlink="http://www.w3.org/1999/xlink" id="Icons_Binoculars_M" overflow="hidden"><style>
.MsftOfcThm_Background1_Fill_v2 {
 fill:#FFFFFF; 
}
</style>
<g id="Icons"><path d=" M 78 26 L 66 26 L 66 23 L 68 23 L 68 14 L 53 14 L 53 23 L 55 23 L 55 26 L 53 26 L 53 31 L 43 31 L 43 26 L 41 26 L 41 23 L 43 23 L 43 14 L 28 14 L 28 23 L 30 23 L 30 26 L 18 26 L 12 59 L 12 78 C 12.0066 80.2064 13.7936 81.9934 16 82 L 31 82 C 33.2064 81.9934 34.9934 80.2064 35 78 L 35 54 L 39 54 C 41.2064 53.9934 42.9934 52.2064 43 50 L 43 49 L 53 49 L 53 50 C 53.0066 52.2064 54.7936 53.9934 57 54 L 61 54 L 61 78 C 61.0066 80.2064 62.7936 81.9934 65 82 L 80 82 C 82.2064 81.9934 83.9934 80.2064 84 78 L 84 59 Z M 30 16 L 41 16 L 41 21 L 30 21 Z M 32 23 L 39 23 L 39 26 L 32 26 Z M 33 78 C 33 79.1046 32.1046 80 31 80 L 16 80 C 14.8954 80 14 79.1046 14 78 L 14 59.18 L 14.942 54 L 33 54 Z M 41 50 C 41 51.1046 40.1046 52 39 52 L 15.306 52 L 19.669 28 L 41 28 Z M 43 47 L 43 33 L 53 33 L 53 47 Z M 55 16 L 66 16 L 66 21 L 55 21 Z M 57 23 L 64 23 L 64 26 L 57 26 Z M 57 52 C 55.8954 52 55 51.1046 55 50 L 55 28 L 76.331 28 L 80.694 52 L 57 52 Z M 82 78 C 82 79.1046 81.1046 80 80 80 L 65 80 C 63.8954 80 63 79.1046 63 78 L 63 54 L 81.058 54 L 82 59.18 Z" fill="#FFFFFF" fill-opacity="1"/></g></svg>