<svg version="1.1" viewBox="0 0 96 96" xmlns="http://www.w3.org/2000/svg" xmlns:xlink="http://www.w3.org/1999/xlink" id="Icons_Laptop_M" overflow="hidden"><style>
.MsftOfcThm_Background1_Fill_v2 {
 fill:#FFFFFF; 
}
</style>
<g id="Icons"><path d=" M 77 61.994 L 77 26 L 19 26 L 19 62.01 Z M 21 28 L 75 28 L 75 59.993 L 21 60.01 Z" fill="#FFFFFF" fill-opacity="1"/><path d=" M 16 25 C 16 23.8954 16.8954 23 18 23 L 78 23 C 79.1046 23 80 23.8954 80 25 L 80 66.013 L 82 66.013 L 82 25 C 82 22.7909 80.2091 21 78 21 L 18 21 C 15.7909 21 14 22.7909 14 25 L 14 66.013 L 16 66.013 Z" fill="#FFFFFF" fill-opacity="1"/><path d=" M 53 68.994 L 53 70.994 L 43 70.994 L 43 68.994 L 2 68.994 L 2 70.994 C 2.00331 73.7541 4.23995 75.9907 7 75.994 L 89 75.994 C 91.7601 75.9907 93.9967 73.7541 94 70.994 L 94 68.994 Z M 89 73.994 L 7 73.994 C 5.34315 73.994 4 72.6509 4 70.994 L 41 70.994 C 40.9635 72.062 41.7997 72.9575 42.8677 72.994 C 42.9118 72.9955 42.9559 72.9955 43 72.994 L 53 72.994 C 54.068 73.0305 54.9635 72.1943 55 71.1263 C 55.0015 71.0822 55.0015 71.0381 55 70.994 L 92 70.994 C 92 72.6509 90.6569 73.994 89 73.994 Z" fill="#FFFFFF" fill-opacity="1"/></g></svg>