<svg version="1.1" viewBox="0 0 96 96" xmlns="http://www.w3.org/2000/svg" xmlns:xlink="http://www.w3.org/1999/xlink" id="Icons_CreditCard" overflow="hidden"><style>
.MsftOfcThm_Background2_lumMod_50_Fill_v2 {
 fill:#F8B117; 
}
</style>
<path d=" M 82 42 L 14 42 L 14 26 L 82 26 L 82 42 Z M 82 70 L 14 70 L 14 54 L 82 54 L 82 70 Z M 84 20 L 12 20 C 9.8 20 8 21.8 8 24 L 8 72 C 8 74.2 9.8 76 12 76 L 84 76 C 86.2 76 88 74.2 88 72 L 88 24 C 88 21.8 86.2 20 84 20 Z" fill="#F8B117" fill-opacity="1"/><rect x="20" y="60" width="16" height="4" fill="#F8B117" fill-opacity="1"/><rect x="40" y="60" width="8" height="4" fill="#F8B117" fill-opacity="1"/></svg>