<svg version="1.1" viewBox="0 0 96 96" xmlns="http://www.w3.org/2000/svg" xmlns:xlink="http://www.w3.org/1999/xlink" id="Icons_Transfer1_LTR" overflow="hidden"><style>
.MsftOfcThm_Background2_lumMod_50_Fill_v2 {
 fill:#F8B117; 
}
</style>
<path d=" M 89.091 63.636 L 86.636 66.091 L 30.182 66.091 L 26.909 62.818 L 26.909 46.455 L 30.182 43.182 L 86.636 43.182 L 89.091 45.636 Z M 22 38.273 L 22 71 L 94 71 L 94 38.273 Z" fill="#F8B117" fill-opacity="1"/><ellipse cx="58" cy="54.636" rx="6.545" ry="8.182" fill="#F8B117" fill-opacity="1"/><circle cx="37.545" cy="54.636" r="2.455" fill="#F8B117" fill-opacity="1"/><circle cx="78.455" cy="54.636" r="2.455" fill="#F8B117" fill-opacity="1"/><path d=" M 72.645 22.482 L 73.873 25.591 L 78.782 24.609 L 75.345 16.018 L 31.327 34.018 L 56.527 29.027 L 72.645 22.482 Z" fill="#F8B117" fill-opacity="1"/><path d=" M 68.391 35 L 81.318 32.464 L 81.891 35 L 86.882 35 L 85.245 26.655 L 43.273 35 L 68.391 35 Z" fill="#F8B117" fill-opacity="1"/><rect x="2" y="44.018" width="16" height="4" fill="#F8B117" fill-opacity="1"/><rect x="7" y="52.018" width="11" height="4" fill="#F8B117" fill-opacity="1"/><rect x="4" y="60.018" width="14" height="4" fill="#F8B117" fill-opacity="1"/></svg>